<svg width="31" height="31" viewBox="0 0 31 31" fill="none" xmlns="http://www.w3.org/2000/svg">
<path d="M15.4904 19.1008C19.7837 19.1008 23.4497 19.7815 23.4497 22.5052C23.4497 25.2278 19.8073 25.9333 15.4904 25.9333C11.197 25.9333 7.53103 25.2526 7.53103 22.53C7.53103 19.8063 11.1735 19.1008 15.4904 19.1008ZM22.3549 17.4607C23.9963 17.4303 25.761 17.6557 26.413 17.8157C27.7945 18.0873 28.7031 18.6417 29.0796 19.4475C29.3978 20.109 29.3978 20.8764 29.0796 21.5368C28.5037 22.7865 26.6472 23.1877 25.9257 23.2914C25.7767 23.3139 25.6568 23.1843 25.6725 23.0344C26.0411 19.5714 23.109 17.9295 22.3505 17.552C22.318 17.5351 22.3113 17.5092 22.3146 17.4934C22.3169 17.4821 22.3303 17.4641 22.3549 17.4607ZM8.44508 17.4584L8.75417 17.4612C8.77882 17.4645 8.79115 17.4826 8.79339 17.4927C8.79675 17.5096 8.79003 17.5344 8.75865 17.5524C7.99902 17.93 5.06693 19.5719 5.43554 23.0337C5.45123 23.1847 5.33247 23.3132 5.18345 23.2918C4.46192 23.1881 2.60541 22.7869 2.02952 21.5372C1.71021 20.8757 1.71021 20.1094 2.02952 19.4479C2.40598 18.6422 3.3135 18.0877 4.69496 17.815C5.34815 17.6561 7.11166 17.4307 8.75417 17.4612L8.44508 17.4584ZM15.4904 5.91278C18.4135 5.91278 20.7574 8.26803 20.7574 11.2093C20.7574 14.1494 18.4135 16.5069 15.4904 16.5069C12.5672 16.5069 10.2234 14.1494 10.2234 11.2093C10.2234 8.26803 12.5672 5.91278 15.4904 5.91278ZM22.6406 6.79606C25.4641 6.79606 27.6813 9.46797 26.9262 12.4441C26.4164 14.4478 24.5711 15.7787 22.5152 15.7246C22.309 15.719 22.1062 15.6998 21.9101 15.666C21.7679 15.6412 21.6962 15.48 21.7768 15.3606C22.5611 14.1999 23.0081 12.8036 23.0081 11.3048C23.0081 9.74068 22.5196 8.28245 21.6715 7.0868C21.6446 7.04961 21.6244 6.99214 21.6513 6.94932C21.6737 6.91438 21.7152 6.89635 21.7544 6.88734C22.0401 6.82874 22.3337 6.79606 22.6406 6.79606ZM8.46679 6.79594C8.77378 6.79594 9.06733 6.82862 9.35415 6.88722C9.39224 6.89624 9.43482 6.9154 9.45722 6.9492C9.48299 6.99203 9.46395 7.0495 9.43706 7.08669C8.58891 8.28234 8.10042 9.74057 8.10042 11.3047C8.10042 12.8035 8.54746 14.1998 9.33174 15.3605C9.41241 15.4799 9.3407 15.6411 9.19841 15.6659C9.00122 15.7008 8.79955 15.7188 8.59339 15.7245C6.53746 15.7786 4.69216 14.4477 4.18238 12.444C3.4261 9.46785 5.64338 6.79594 8.46679 6.79594Z" fill="#EFF2F4"/>
</svg>
