<svg width="31" height="31" viewBox="0 0 31 31" fill="none" xmlns="http://www.w3.org/2000/svg">
<path d="M15.5602 3.41022C18.9136 3.41022 21.6705 6.0453 21.8104 9.38424H21.7777C21.7817 9.4813 21.763 9.57794 21.7232 9.66663H21.9186C23.4414 9.66663 25.036 10.7221 25.6754 13.2701L25.7449 13.5707L26.707 21.322C27.3994 26.2658 24.6946 28.3449 21.0049 28.4329L20.7574 28.4359H10.3844C6.6346 28.4359 3.7451 27.0694 4.38042 21.6584L4.42375 21.322L5.39691 13.5707C5.87678 10.8268 7.48777 9.74452 9.03999 9.67071L9.21216 9.66663H9.30998C9.29348 9.57322 9.29348 9.47765 9.30998 9.38424C9.44992 6.0453 12.2068 3.41022 15.5602 3.41022ZM11.9215 13.8325C11.3108 13.8325 10.8157 14.3421 10.8157 14.9707C10.8157 15.5993 11.3108 16.1089 11.9215 16.1089C12.5323 16.1089 13.0274 15.5993 13.0274 14.9707L13.0188 14.828C12.9506 14.2667 12.4853 13.8325 11.9215 13.8325ZM19.165 13.8325C18.5542 13.8325 18.0591 14.3421 18.0591 14.9707C18.0591 15.5993 18.5542 16.1089 19.165 16.1089C19.7757 16.1089 20.2709 15.5993 20.2709 14.9707C20.2709 14.3421 19.7757 13.8325 19.165 13.8325ZM15.5112 5.03987C13.1036 5.03987 11.1518 6.98491 11.1518 9.38424C11.1683 9.47765 11.1683 9.57322 11.1518 9.66663H19.925C19.8902 9.57646 19.8717 9.48085 19.8705 9.38424C19.8705 6.98491 17.9188 5.03987 15.5112 5.03987Z" fill="#EFF2F4"/>
</svg>
