<svg width="31" height="31" viewBox="0 0 31 31" fill="none" xmlns="http://www.w3.org/2000/svg">
<path d="M10.4486 17.7005C12.2129 17.7005 13.6269 19.1282 13.6269 20.905V25.1706C13.6269 26.9349 12.2129 28.3739 10.4486 28.3739H6.21927C4.46748 28.3739 3.04102 26.9349 3.04102 25.1706V20.905C3.04102 19.1282 4.46748 17.7005 6.21927 17.7005H10.4486ZM24.8885 17.7005C26.6403 17.7005 28.0668 19.1282 28.0668 20.905V25.1706C28.0668 26.9349 26.6403 28.3739 24.8885 28.3739H20.6592C18.8949 28.3739 17.4809 26.9349 17.4809 25.1706V20.905C17.4809 19.1282 18.8949 17.7005 20.6592 17.7005H24.8885ZM10.4486 3.34863C12.2129 3.34863 13.6269 4.78761 13.6269 6.55317V10.8188C13.6269 12.5956 12.2129 14.0221 10.4486 14.0221H6.21927C4.46748 14.0221 3.04102 12.5956 3.04102 10.8188V6.55317C3.04102 4.78761 4.46748 3.34863 6.21927 3.34863H10.4486ZM24.8885 3.34863C26.6403 3.34863 28.0668 4.78761 28.0668 6.55317V10.8188C28.0668 12.5956 26.6403 14.0221 24.8885 14.0221H20.6592C18.8949 14.0221 17.4809 12.5956 17.4809 10.8188V6.55317C17.4809 4.78761 18.8949 3.34863 20.6592 3.34863H24.8885Z" fill="#EFF2F4"/>
</svg>
