<svg width="31" height="31" viewBox="0 0 31 31" fill="none" xmlns="http://www.w3.org/2000/svg">
<path d="M15.5789 3.28711C22.6861 3.28711 28.0667 9.11431 28.0667 15.7811C28.0667 23.5131 21.7602 28.3127 15.5538 28.3127C13.5017 28.3127 11.2244 27.7614 9.39753 26.6836C8.75937 26.2952 8.22132 26.0069 7.53312 26.2325L5.00553 26.9844C4.36737 27.1849 3.79178 26.6836 3.97948 26.0069L4.81784 23.1998C4.95548 22.8114 4.93045 22.3978 4.73025 22.072C3.65414 20.092 3.04102 17.924 3.04102 15.8187C3.04102 9.2271 8.30891 3.28711 15.5789 3.28711ZM21.2972 14.2272C20.4088 14.2272 19.6956 14.9415 19.6956 15.8313C19.6956 16.7085 20.4088 17.4353 21.2972 17.4353C22.1856 17.4353 22.8989 16.7085 22.8989 15.8313C22.8989 14.9415 22.1856 14.2272 21.2972 14.2272ZM15.5288 14.2272C14.6529 14.2147 13.9272 14.9415 13.9272 15.8187C13.9272 16.7085 14.6404 17.4228 15.5288 17.4353C16.4172 17.4353 17.1305 16.7085 17.1305 15.8313C17.1305 14.9415 16.4172 14.2272 15.5288 14.2272ZM9.7604 14.2272C8.87199 14.2272 8.15876 14.9415 8.15876 15.8313C8.15876 16.7085 8.8845 17.4353 9.7604 17.4353C10.6488 17.4228 11.362 16.7085 11.362 15.8313C11.362 14.9415 10.6488 14.2272 9.7604 14.2272Z" fill="#EFF2F4"/>
</svg>
