<svg width="31" height="31" viewBox="0 0 31 31" fill="none" xmlns="http://www.w3.org/2000/svg">
<path d="M20.7981 3.22559C24.6634 3.22559 26.8156 5.45287 26.8156 9.26928V22.195C26.8156 26.074 24.6634 28.2512 20.7981 28.2512H10.3111C6.50725 28.2512 4.29248 26.074 4.29248 22.195V9.26928C4.29248 5.45287 6.50725 3.22559 10.3111 3.22559H20.7981ZM10.649 20.4182C10.2736 20.3807 9.91074 20.5558 9.71053 20.8812C9.51033 21.194 9.51033 21.6069 9.71053 21.9323C9.91074 22.2451 10.2736 22.4328 10.649 22.3827H20.459C20.9583 22.3327 21.3349 21.906 21.3349 21.4067C21.3349 20.8937 20.9583 20.4683 20.459 20.4182H10.649ZM20.459 14.7111H10.649C10.1097 14.7111 9.67299 15.1503 9.67299 15.6884C9.67299 16.2264 10.1097 16.6644 10.649 16.6644H20.459C20.9971 16.6644 21.435 16.2264 21.435 15.6884C21.435 15.1503 20.9971 14.7111 20.459 14.7111ZM14.3891 9.04405H10.649V9.05656C10.1097 9.05656 9.67299 9.49451 9.67299 10.0326C9.67299 10.5706 10.1097 11.0086 10.649 11.0086H14.3891C14.9284 11.0086 15.3663 10.5706 15.3663 10.0188C15.3663 9.482 14.9284 9.04405 14.3891 9.04405Z" fill="#EFF2F4"/>
</svg>
