<svg width="31" height="31" viewBox="0 0 31 31" fill="none" xmlns="http://www.w3.org/2000/svg">
<path d="M21.3914 3.11535C23.1914 3.00285 24.9664 3.62784 26.3039 4.85283C27.5289 6.19032 28.1539 7.96531 28.0539 9.77779V21.4527C28.1664 23.2652 27.5289 25.0402 26.3164 26.3776C24.9789 27.6026 23.1914 28.2276 21.3914 28.1151H9.71644C7.90394 28.2276 6.12895 27.6026 4.79145 26.3776C3.56645 25.0402 2.94145 23.2652 3.05395 21.4527V9.77779C2.94145 7.96531 3.56645 6.19032 4.79145 4.85283C6.12895 3.62784 7.90394 3.00285 9.71644 3.11535H21.3914ZM21.0664 8.8278C20.2914 8.0528 19.0414 8.0528 18.2664 8.8278L17.4289 9.67779C17.3039 9.80279 17.3039 10.0153 17.4289 10.1403C17.4289 10.1403 17.4535 10.1647 17.4971 10.2081L17.8046 10.5139C17.9825 10.6908 18.2045 10.9118 18.4274 11.134L19.1833 11.8896C19.341 12.048 19.4456 12.1542 19.4539 12.1653C19.5914 12.3153 19.6789 12.5153 19.6789 12.7403C19.6789 13.1903 19.3164 13.5653 18.8539 13.5653C18.6414 13.5653 18.4414 13.4778 18.3039 13.3403L16.2164 11.2653C16.1164 11.1653 15.9414 11.1653 15.8414 11.2653L9.87894 17.2277C9.46644 17.6402 9.22894 18.1902 9.21644 18.7777L9.14144 21.7402C9.14144 21.9027 9.19144 22.0527 9.30394 22.1652C9.41644 22.2777 9.56644 22.3402 9.72894 22.3402H12.6664C13.2664 22.3402 13.8414 22.1027 14.2789 21.6777L22.6914 13.2403C23.4539 12.4653 23.4539 11.2153 22.6914 10.4528L21.0664 8.8278Z" fill="white"/>
</svg>
