<svg width="31" height="31" viewBox="0 0 31 31" fill="none" xmlns="http://www.w3.org/2000/svg">
<path d="M23.7637 17.5731C26.1411 17.5731 28.0667 19.4663 28.0667 21.802C28.0667 24.1364 26.1411 26.0296 23.7637 26.0296C21.3876 26.0296 19.4607 24.1364 19.4607 21.802C19.4607 19.4663 21.3876 17.5731 23.7637 17.5731ZM13.1555 19.9986C14.1968 19.9986 15.0421 20.8291 15.0421 21.8522C15.0421 22.8739 14.1968 23.7057 13.1555 23.7057H4.92766C3.88632 23.7057 3.04102 22.8739 3.04102 21.8522C3.04102 20.8291 3.88632 19.9986 4.92766 19.9986H13.1555ZM7.34401 3.78455C9.72143 3.78455 11.647 5.67772 11.647 8.01208C11.647 10.3478 9.72143 12.241 7.34401 12.241C4.96798 12.241 3.04102 10.3478 3.04102 8.01208C3.04102 5.67772 4.96798 3.78455 7.34401 3.78455ZM26.1814 6.15989C27.2213 6.15989 28.0667 6.99037 28.0667 8.01208C28.0667 9.03515 27.2213 9.86564 26.1814 9.86564H17.9536C16.9122 9.86564 16.0669 9.03515 16.0669 8.01208C16.0669 6.99037 16.9122 6.15989 17.9536 6.15989H26.1814Z" fill="#EFF2F4"/>
</svg>
