<svg width="31" height="31" viewBox="0 0 31 31" fill="none" xmlns="http://www.w3.org/2000/svg">
<path d="M11.969 26.5316V22.7056C11.969 21.7289 12.7665 20.9371 13.7504 20.9371H17.3468C17.8192 20.9371 18.2723 21.1234 18.6064 21.4551C18.9405 21.7867 19.1282 22.2365 19.1282 22.7056V26.5316C19.1252 26.9377 19.2856 27.3281 19.5738 27.6163C19.8619 27.9045 20.254 28.0665 20.6631 28.0665H23.1167C24.2626 28.0695 25.3627 27.6196 26.174 26.8163C26.9854 26.0129 27.4413 24.922 27.4413 23.7844V12.8846C27.4413 11.9656 27.031 11.0939 26.321 10.5044L17.9742 3.8866C16.5222 2.72627 14.4419 2.76374 13.0333 3.97557L4.877 10.5044C4.1334 11.0766 3.68896 11.9508 3.66699 12.8846V23.7733C3.66699 26.1444 5.6032 28.0665 7.99164 28.0665H10.3892C11.2388 28.0665 11.9292 27.3861 11.9354 26.5428L11.969 26.5316Z" fill="#EFF2F4"/>
</svg>
