<svg width="31" height="31" viewBox="0 0 31 31" fill="none" xmlns="http://www.w3.org/2000/svg">
<path d="M14.9191 2.93332C18.0255 2.93332 20.559 5.42337 20.559 8.48901V14.4827H12.9203C12.3729 14.4827 11.94 14.9081 11.94 15.4461C11.94 15.9717 12.3729 16.4096 12.9203 16.4096H20.559V22.3908C20.559 25.4564 18.0255 27.959 14.8936 27.959H8.69361C5.5745 27.959 3.04102 25.4689 3.04102 22.4033V8.50152C3.04102 5.42337 5.58723 2.93332 8.70634 2.93332H14.9191ZM23.7375 11.1295C24.1129 10.7416 24.726 10.7416 25.1014 11.117L28.7551 14.7582C28.9428 14.9459 29.0429 15.1836 29.0429 15.4464C29.0429 15.6966 28.9428 15.9469 28.7551 16.1221L25.1014 19.7633C24.9137 19.951 24.6634 20.0511 24.4257 20.0511C24.1754 20.0511 23.9252 19.951 23.7375 19.7633C23.3621 19.3879 23.3621 18.7748 23.7375 18.3994L25.7395 16.4099H20.5592V14.4829H25.7395L23.7375 12.4934C23.3621 12.118 23.3621 11.5049 23.7375 11.1295Z" fill="white"/>
</svg>
