<svg width="31" height="31" viewBox="0 0 31 31" fill="none" xmlns="http://www.w3.org/2000/svg">
<path d="M16.4511 3.47192C17.3974 3.47192 18.2542 3.99746 18.7273 4.77326C18.9575 5.14864 19.1109 5.61162 19.0726 6.09962C19.047 6.475 19.1621 6.85039 19.3667 7.20074C20.0189 8.26433 21.4639 8.66474 22.5892 8.06413C23.8551 7.33839 25.4536 7.77633 26.1825 9.0151L27.0392 10.4916C27.7809 11.7304 27.3717 13.3195 26.093 14.0327C25.006 14.6709 24.6224 16.0848 25.2746 17.1609C25.4792 17.4988 25.7093 17.7866 26.0674 17.9618C26.515 18.1995 26.8602 18.5749 27.1032 18.9503C27.5763 19.7261 27.538 20.6771 27.0776 21.5154L26.1825 23.0169C25.7093 23.8178 24.827 24.3183 23.9191 24.3183C23.4715 24.3183 22.9728 24.1932 22.5636 23.9429C22.2311 23.7302 21.8475 23.6551 21.4383 23.6551C20.1723 23.6551 19.1109 24.6937 19.0726 25.9324C19.0726 27.3714 17.8961 28.4976 16.4256 28.4976H14.6865C13.2031 28.4976 12.0266 27.3714 12.0266 25.9324C12.0011 24.6937 10.9397 23.6551 9.67372 23.6551C9.25173 23.6551 8.86811 23.7302 8.54842 23.9429C8.13922 24.1932 7.62771 24.3183 7.19293 24.3183C6.27223 24.3183 5.38989 23.8178 4.91675 23.0169L4.03441 21.5154C3.56127 20.7021 3.53569 19.7261 4.00883 18.9503C4.21343 18.5749 4.59706 18.1995 5.03184 17.9618C5.38989 17.7866 5.62006 17.4988 5.83745 17.1609C6.47683 16.0848 6.0932 14.6709 5.00626 14.0327C3.74029 13.3195 3.33109 11.7304 4.05998 10.4916L4.91675 9.0151C5.65843 7.77633 7.24409 7.33839 8.52284 8.06413C9.63536 8.66474 11.0804 8.26433 11.7325 7.20074C11.9371 6.85039 12.0522 6.475 12.0266 6.09962C12.0011 5.61162 12.1417 5.14864 12.3847 4.77326C12.8578 3.99746 13.7146 3.49695 14.6481 3.47192H16.4511ZM15.5688 12.4561C13.5611 12.4561 11.9371 14.0327 11.9371 15.9973C11.9371 17.9618 13.5611 19.5259 15.5688 19.5259C17.5764 19.5259 19.1621 17.9618 19.1621 15.9973C19.1621 14.0327 17.5764 12.4561 15.5688 12.4561Z" fill="#EFF2F4"/>
</svg>
