<svg width="29" height="29" viewBox="0 0 29 29" fill="none" xmlns="http://www.w3.org/2000/svg">
<path fill-rule="evenodd" clip-rule="evenodd" d="M9.6951 6.84745C9.18349 6.34311 9.18349 5.52542 9.6951 5.02108L13.5027 1.26754C14.0143 0.763198 14.8438 0.763197 15.3554 1.26754L19.163 5.02108C19.6746 5.52542 19.6746 6.34311 19.163 6.84745L15.3554 10.601C14.8438 11.1053 14.0143 11.1053 13.5027 10.601L9.6951 6.84745ZM13.7309 14.9511C13.4751 14.6989 13.4751 14.2901 13.7309 14.0379L13.9837 13.7886C14.2396 13.5365 14.6543 13.5365 14.9101 13.7886L15.163 14.0379C15.4188 14.2901 15.4188 14.6989 15.163 14.9511L14.9101 15.2004C14.6543 15.4526 14.2396 15.4526 13.9837 15.2004L13.7309 14.9511ZM18.6811 13.6007C18.1694 14.105 18.1694 14.9227 18.6811 15.4271L22.4887 19.1806C23.0003 19.6849 23.8298 19.6849 24.3414 19.1806L28.149 15.4271C28.6606 14.9227 28.6606 14.105 28.149 13.6007L24.3414 9.84715C23.8298 9.34281 23.0003 9.34281 22.4887 9.84715L18.6811 13.6007ZM0.765052 15.4174C0.253446 14.9131 0.253446 14.0954 0.765052 13.5911L4.57268 9.83753C5.08428 9.33319 5.91376 9.33319 6.42536 9.83753L10.233 13.5911C10.7446 14.0954 10.7446 14.9131 10.233 15.4174L6.42536 19.171C5.91376 19.6753 5.08428 19.6753 4.57268 19.171L0.765052 15.4174ZM9.6951 22.1194C9.18349 22.6237 9.18349 23.4414 9.6951 23.9457L13.5027 27.6993C14.0143 28.2036 14.8438 28.2036 15.3554 27.6993L19.163 23.9457C19.6746 23.4414 19.6746 22.6237 19.163 22.1194L15.3554 18.3658C14.8438 17.8615 14.0143 17.8615 13.5027 18.3658L9.6951 22.1194Z" fill="#2196F3"/>
</svg>
